<svg xmlns="http://www.w3.org/2000/svg" width="22" height="22" viewBox="0 0 22 22">
    <path fill="none" fill-rule="evenodd" stroke="#849F27" stroke-linecap="round" stroke-linejoin="round" stroke-width="2" d="M21 15.974v3.01a2.005 2.005 0 0 1-.652 1.488c-.417.382-.977.57-1.54.52a19.926 19.926 0 0 1-8.68-3.081 19.59 19.59 0 0 1-6.033-6.022 19.836 19.836 0 0 1-3.087-8.701 2.005 2.005 0 0 1 .518-1.534c.38-.416.919-.653 1.483-.654h3.017a2.01 2.01 0 0 1 2.011 1.726c.128.964.364 1.91.704 2.82.276.734.1 1.56-.452 2.118L7.012 8.939a16.074 16.074 0 0 0 6.033 6.021l1.277-1.274a2.014 2.014 0 0 1 2.122-.452c.912.34 1.86.575 2.826.703A2.008 2.008 0 0 1 21 15.974z"/>
</svg>
