<svg xmlns="http://www.w3.org/2000/svg" width="72" height="72" viewBox="0 0 72 72">
    <g fill="#D8232A" fill-rule="evenodd">
        <path d="M45.84 16.669L35.304 27.203 24.772 16.671l-9.03 9.028 10.535 10.533-10.534 10.535 9.029 9.027L35.305 45.26l10.534 10.534 9.03-9.027-10.535-10.535L54.868 25.7l-9.029-9.03"/>
        <path d="M57.477 57.478C51.741 63.215 44.114 66.375 36 66.375s-15.743-3.16-21.48-8.897C8.785 51.741 5.625 44.112 5.625 36c0-8.114 3.16-15.741 8.895-21.478C20.257 8.784 27.886 5.625 36 5.625s15.741 3.16 21.477 8.897h.001c5.737 5.737 8.897 13.364 8.897 21.478 0 8.112-3.16 15.741-8.898 21.478zM36 0c-9.213 0-18.427 3.515-25.456 10.544-14.059 14.058-14.059 36.854 0 50.912C17.573 68.485 26.787 72 36 72c9.214 0 18.427-3.515 25.456-10.544 14.059-14.058 14.059-36.854 0-50.912C54.426 3.515 45.214 0 36 0z"/>
    </g>
</svg>
