<svg xmlns="http://www.w3.org/2000/svg" width="29" height="28" viewBox="0 0 29 28">
    <path fill="#201E1F" fill-rule="evenodd" stroke="#201E1F" d="M16.573 14L27.57 3.41a1.374 1.374 0 0 0 0-1.996 1.505 1.505 0 0 0-2.073 0L14.5 12.004 3.503 1.414a1.505 1.505 0 0 0-2.073 0 1.374 1.374 0 0 0 0 1.996L12.427 14 1.43 24.59a1.374 1.374 0 0 0 0 1.997A1.49 1.49 0 0 0 2.467 27c.375 0 .75-.137 1.036-.413L14.5 15.997l10.997 10.59a1.49 1.49 0 0 0 1.037.413c.376 0 .75-.137 1.036-.413a1.374 1.374 0 0 0 0-1.996L16.573 14"/>
</svg>
