<svg xmlns="http://www.w3.org/2000/svg" xmlns:xlink="http://www.w3.org/1999/xlink" width="164" height="16" viewBox="0 0 164 16">
    <defs>
        <path id="a" d="M0 0v16h17V0H0z"/>
        <path id="c" d="M0 0v16h17V0H0z"/>
        <path id="e" d="M0 0v16h17V0H0z"/>
        <path id="g" d="M0 0v16h17V0H0z"/>
        <path id="i" d="M0 0v16h17V0H0z"/>
    </defs>
    <g fill="none" fill-rule="evenodd">
        <g>
            <mask id="b" fill="#fff">
                <use xlink:href="#a"/>
            </mask>
            <path fill="#EFCE4A" d="M8.5 0l2.626 5.267L17 6.112l-4.25 4.099L13.753 16 8.5 13.267 3.247 16l1.003-5.789L0 6.111l5.874-.844z" mask="url(#b)"/>
        </g>
        <g transform="translate(37)">
            <mask id="d" fill="#fff">
                <use xlink:href="#c"/>
            </mask>
            <path fill="#EFCE4A" d="M8.5 0l2.626 5.267L17 6.112l-4.25 4.099L13.753 16 8.5 13.267 3.247 16l1.003-5.789L0 6.111l5.874-.844z" mask="url(#d)"/>
        </g>
        <g transform="translate(110)">
            <mask id="f" fill="#fff">
                <use xlink:href="#e"/>
            </mask>
            <path fill="#EFCE4A" d="M8.5 0l2.626 5.267L17 6.112l-4.25 4.099L13.753 16 8.5 13.267 3.247 16l1.003-5.789L0 6.111l5.874-.844z" mask="url(#f)"/>
        </g>
        <g transform="translate(75)">
            <mask id="h" fill="#fff">
                <use xlink:href="#g"/>
            </mask>
            <path fill="#EFCE4A" d="M8.5 0l2.626 5.267L17 6.112l-4.25 4.099L13.753 16 8.5 13.267 3.247 16l1.003-5.789L0 6.111l5.874-.844z" mask="url(#h)"/>
        </g>
        <g transform="translate(147)">
            <mask id="j" fill="#fff">
                <use xlink:href="#i"/>
            </mask>
            <path fill="#EFCE4A" d="M8.5 0l2.626 5.267L17 6.112l-4.25 4.099L13.753 16 8.5 13.267 3.247 16l1.003-5.789L0 6.111l5.874-.844z" mask="url(#j)"/>
        </g>
    </g>
</svg>
