<?xml version="1.0" encoding="UTF-8"?>
<svg width="109px" height="84px" viewBox="0 0 109 84" version="1.1" xmlns="http://www.w3.org/2000/svg" xmlns:xlink="http://www.w3.org/1999/xlink">
    <!-- Generator: Sketch 48.2 (47327) - http://www.bohemiancoding.com/sketch -->
    <title>“</title>
    <desc>Created with Sketch.</desc>
    <defs></defs>
    <g id="Home" stroke="none" stroke-width="1" fill="none" fill-rule="evenodd" transform="translate(-784.000000, -2349.000000)" opacity="0.2">
        <path d="M880.8,2349.5 L883.5,2353.7 C864.899907,2365.90006 855.6,2378.09994 855.6,2390.3 C855.6,2396.50003 858.299973,2400.1 863.7,2401.1 L876.3,2389.4 C880.30002,2390.80001 883.949984,2393.34998 887.25,2397.05 C890.550016,2400.75002 892.2,2405.49997 892.2,2411.3 C892.2,2417.10003 889.900023,2422.04998 885.3,2426.15 C880.699977,2430.25002 874.650037,2432.3 867.15,2432.3 C859.649963,2432.3 853.450025,2429.75003 848.55,2424.65 C843.649975,2419.54997 841.2,2412.50004 841.2,2403.5 C841.2,2383.8999 854.399868,2365.90008 880.8,2349.5 Z M824.4,2349.5 L827.1,2353.7 C808.499907,2365.90006 799.2,2378.09994 799.2,2390.3 C799.2,2396.50003 801.899973,2400.1 807.3,2401.1 L819.9,2389.4 C823.90002,2390.80001 827.549984,2393.34998 830.85,2397.05 C834.150016,2400.75002 835.8,2405.49997 835.8,2411.3 C835.8,2417.10003 833.500023,2422.04998 828.9,2426.15 C824.299977,2430.25002 818.250037,2432.3 810.75,2432.3 C803.249963,2432.3 797.050024,2429.75003 792.15,2424.65 C787.249976,2419.54997 784.8,2412.50004 784.8,2403.5 C784.8,2383.8999 797.999868,2365.90008 824.4,2349.5 Z" id="“" fill="#849F27"></path>
    </g>
</svg>