<svg xmlns="http://www.w3.org/2000/svg" width="72" height="72" viewBox="0 0 72 72">
    <g fill="#27A848" fill-rule="evenodd">
        <path d="M57.48 57.478c-5.737 5.737-13.367 8.897-21.48 8.897s-15.742-3.16-21.48-8.897C2.68 45.635 2.68 26.365 14.52 14.522 20.258 8.785 27.887 5.625 36 5.625s15.743 3.16 21.48 8.897c11.841 11.843 11.841 31.113 0 42.956zm3.976-46.934C54.427 3.514 45.213 0 36 0c-9.213 0-18.426 3.514-25.456 10.544-14.059 14.058-14.059 36.853 0 50.91C17.574 68.485 26.787 72 36 72c9.213 0 18.427-3.516 25.456-10.545 14.059-14.058 14.059-36.853 0-50.91z"/>
        <path d="M30.506 40.489l-9.677-9.6L12 39.647 30.506 58l.002-.002L61 27.756 52.172 19 30.506 40.489"/>
    </g>
</svg>
