<svg xmlns="http://www.w3.org/2000/svg" width="21" height="24" viewBox="0 0 21 24">
    <path fill="#849F27" fill-rule="evenodd" d="M20.063 16.816l-3.14-1.813 2.61-.579a.48.48 0 1 0-.208-.937l-3.632.806-4.581-2.645 4.581-2.645 3.632.805a.48.48 0 0 0 .208-.937l-2.61-.579 3.14-1.812a.48.48 0 0 0-.48-.832l-3.14 1.813.804-2.549a.48.48 0 0 0-.916-.288L15.213 8.17l-4.581 2.646V5.526l2.513-2.742a.48.48 0 1 0-.708-.649l-1.805 1.97V.48a.48.48 0 0 0-.96 0v3.625l-1.806-1.97a.48.48 0 0 0-.708.65l2.514 2.74v5.292L5.09 8.17 3.972 4.624a.48.48 0 0 0-.916.288l.804 2.549L.72 5.648a.48.48 0 1 0-.48.831l3.14 1.813-2.61.579a.48.48 0 0 0 .209.937l3.631-.806 4.582 2.646-4.582 2.645-3.631-.805a.479.479 0 1 0-.208.937l2.609.579-3.14 1.812a.48.48 0 1 0 .48.832l3.14-1.813-.804 2.549a.48.48 0 0 0 .916.288l1.118-3.547 4.582-2.646v5.29l-2.514 2.743a.48.48 0 0 0 .708.648l1.806-1.97v3.626a.48.48 0 1 0 .96 0V19.19l1.805 1.97a.48.48 0 1 0 .708-.648l-2.513-2.742v-5.291l4.581 2.645 1.118 3.548a.48.48 0 1 0 .916-.288l-.803-2.55 3.14 1.813a.477.477 0 0 0 .655-.175.48.48 0 0 0-.176-.656"/>
</svg>
